<svg width="80" height="80" viewBox="0 0 80 80" xmlns="http://www.w3.org/2000/svg">
  <!-- Background circle -->
  <circle cx="40" cy="40" r="38" fill="#1976D2" stroke="#0D47A1" stroke-width="3"/>

  <!-- Face -->
  <circle cx="40" cy="35" r="22" fill="#FFDBCB"/>

  <!-- Hair -->
  <path d="M 18 30 Q 40 15 62 30 Q 60 25 40 20 Q 20 25 18 30" fill="#8D6E63"/>

  <!-- Eyes -->
  <circle cx="33" cy="32" r="2" fill="#2E7D32"/>
  <circle cx="47" cy="32" r="2" fill="#2E7D32"/>

  <!-- Glasses -->
  <circle cx="33" cy="32" r="6" fill="none" stroke="#424242" stroke-width="2"/>
  <circle cx="47" cy="32" r="6" fill="none" stroke="#424242" stroke-width="2"/>
  <line x1="39" y1="32" x2="41" y2="32" stroke="#424242" stroke-width="2"/>

  <!-- Nose -->
  <line x1="40" y1="35" x2="40" y2="40" stroke="#D7CCC8" stroke-width="1"/>

  <!-- Mouth -->
  <path d="M 35 43 Q 40 47 45 43" stroke="#8D6E63" stroke-width="2" fill="none"/>

  <!-- Lab coat collar -->
  <path d="M 25 57 L 40 52 L 55 57 L 55 80 L 25 80 Z" fill="white" stroke="#E0E0E0" stroke-width="1"/>

  <!-- NASA logo area -->
  <circle cx="40" cy="67" r="5" fill="#1976D2"/>
  <text x="40" y="70" text-anchor="middle" font-family="Arial" font-size="6" fill="white">NASA</text>
</svg>